<?xml version="1.0" encoding="UTF-8"?><svg id="olive-branch-01" xmlns="http://www.w3.org/2000/svg" viewBox="0 0 200 360"><path d="m191.93,249.73c-9.81,1.69-19.78,2.32-29.59,4.01-9.81,1.69-19.62,4.53-27.84,10.16-5.22,3.57-9.65,8.17-13.99,12.77-6.38,6.77-12.78,13.89-16.16,22.53-3.39,2.35-6.61,4.94-9.58,7.81,0,0,0,0,0,0,4.3-10.94,7.42-22.36,9.35-33.92,2.51-15.05,3.13-30.24,2.35-45.38l.14-.37c3.18-6.06,6.11-12.32,8.72-18.71,7.14-6.7,12.3-15.44,15.6-24.72,3.37-9.49,4.89-19.56,5.56-29.61.96-14.36.23-28.88-2.96-42.91-2.41,14.89-11.69,27.71-16.31,42.07-5.45,16.91-4.22,35.11-2.61,52.86-2.52,5.67-5.61,11.16-8.43,16.49-1.6-22.28-6.15-44.42-12.28-65.82-1.29-4.53-2.67-9.03-4.1-13.51,1.03-7.04,2.87-14.64,6.15-21.18,5.97-1.73,10.76-6.19,15.24-10.82,18.78-19.39,33.96-42.03,46.98-65.68-5.44,2.87-10.83,5.82-16.18,8.87-12.87,7.35-25.67,15.43-35.17,26.81-9.19,11.03-14.92,25.73-12.45,39.81-2.97,5.47-5,11.43-6.04,17.61-4.64-14.23-9.82-28.28-15.11-42.28,3.12-15.09,2.57-32.86-4.51-47.74C60.04,30.67,41.17,18.91,32.44.71c2.41,11.6,2.5,23.54,3.68,35.33,1.18,11.79,3.59,23.8,10.03,33.74,2.7,4.16,6.04,7.86,9.37,11.54,4.71,5.21,10.48,10.84,15.42,16.13.03.08.04.18.07.25,7.46,19.66,14.81,39.51,20.77,59.74-2.59-2.91-5.58-5.45-8.72-7.7-.25-5.39-3.27-10.17-6.59-14.74-5.76-7.94-12.44-15.32-20.5-20.91-10.87-7.53-24.12-11.57-37.34-11.38-6.43.09-12.31.53-18.64-.06,12,.69,22.71,6.03,32.48,13.03,9.77,7.01,18.23,15.63,27.01,23.84,4.9,4.58,10.14,9.16,16.55,11.12,1.96.6,3.93.62,5.96.57,4.16,2.9,8.05,6.26,10.97,10.4,4.21,14.8,7.63,29.8,9.74,45.08,2.26,16.36,2.93,33.03,1.49,49.45-.35-.95-.72-1.87-1.1-2.71-1.84-4.12-4.07-8.09-6.64-11.79-.22-.31-.45-.64-.69-.96,1.34-17.84-4.03-36-14.54-50.62-10.77-14.98-26.38-26.24-43.66-32.73-9.55-3.59-20.36-6.31-26.33-14.58,3.23,9.83,10.83,17.59,18.83,24.16s16.71,12.42,23.47,20.26c12.69,14.71,17.56,35.36,31.84,48.52,2.63,2.42,5.35,4.54,8.61,5.79.32.42.62.84.9,1.24,2.49,3.61,4.67,7.47,6.46,11.49.98,2.18,2,4.77,2.2,7.43h.07c-2,17.1-6.38,33.87-13.8,49.67-3.67,7.82-8.06,15.27-13.1,22.25.1-4.41-.02-8.83-.36-13.23,1.68-3.38,2.21-7.32,2.5-11.14.53-6.8.52-13.68-.76-20.38-.89-4.65-2.38-9.16-3.86-13.65-5.05-15.27-10.15-30.64-17.96-44.69-2-3.59-4.22-7.27-4.4-11.38-2.81,20.72-1.44,42,3.99,62.19,1.13,4.19,2.43,8.34,4.2,12.29,1.34,3,2.94,5.87,4.55,8.74,3.27,5.85,6.53,11.7,9.8,17.55.45,5.43.57,10.88.34,16.33-5.05,6.63-10.7,12.79-17,18.31-1.13.99-.05,6.07.64,5.47,15.27-13.37,26.72-30.28,34.62-48.79.02-.04.05-.09.06-.12.22-.36,2.38-2.56,2.79-2.91,2.18-1.98,5.84-4.78,9.89-7.72,15.41,2.96,31.49-1.9,45.24-9.53,3.35-1.86,6.61-3.88,9.67-6.19,4.26-3.23,8.08-6.99,11.88-10.74l8.57-8.45c6.28-6.19,12.56-12.39,18.84-18.58-2.32,1.7-5.24,2.32-8.07,2.81Zm-98.22,59.94s.04-.09.06-.14c.02-.02.05-.04.08-.05-.05.06-.09.13-.13.19Zm.29-.68s.01-.03.02-.04c0,0,0,0,0,0,0,.02-.02.03-.03.05Zm.24-.48s-.06.05-.04.06c-.07.08-.1.18-.14.28.06-.15.11-.29.17-.44,0,0,0,.02,0,.02-.06.06-.02.07.05.03-.01.02-.02.03-.04.05Zm.12-.45s0-.02,0-.02c0,0,0,0,0,0,0,0,0,0-.02.01Z"/></svg>