<?xml version="1.0" encoding="UTF-8"?><svg id="olive-branch-04" xmlns="http://www.w3.org/2000/svg" viewBox="0 0 196 360"><path d="m153.79,189.24c-18.97,8.76-35.45,22.82-47.09,40.16-3.62,5.4-6.82,11.35-7.47,17.79-.11.07-.22.13-.32.2-2.2,1.45-4.35,2.99-6.42,4.62-1.15.9-2.27,1.85-3.16,2.98.13-.7.29-1.4.4-2.11,2.51-15.82,4.95-31.76,6.38-47.75,1.11-2.8,2.67-5.34,4.48-7.73.71-.78,1.44-1.55,2.2-2.29,2.64.59,5.48-.03,7.9-1.26,2.66-1.35,4.91-3.36,7.14-5.35,8.48-7.59,17.18-15.46,22.09-25.73,2.39-5,3.79-10.41,4.92-15.84,3.99-19.21,4.64-39.31,0-58.38-1.24-5.09-2.86-10.18-2.69-15.42-.91,15.36-2.37,30.77-6.19,45.67s-10.09,29.37-19.83,41.28c-3.82,4.68-8.19,8.99-11.06,14.3-3.15,5.83-4.31,12.72-3.26,19.26-.41.5-.82,1-1.21,1.51-1.47,1.6-2.84,3.29-4.1,5.07.55-7.26.9-14.52.91-21.8-.3-13.21-1.88-26.43-4.68-39.39,1.61-7.78,6.45-14.3,9.72-21.45,2.5-2.3,6.35-6.58,9.16-11.57,4.26-7.58,5.88-16.35,6.82-25,1.71-15.85,1.32-31.92-1.16-47.66-1.22-7.75-2.91-15.86-.35-23.27-4.63,10.42-13.06,18.87-17.2,29.49-4.3,11.01-3.6,23.24-2.84,35.03.93,14.42,1.88,28.87,4.39,43.09-3.14,6.47-7.29,12.52-8.94,19.59-.63-2.79-1.3-5.56-2.05-8.31-1.41-6.22-3.2-12.34-5.49-18.29-.33-.98-.66-1.96-1.01-2.94-.21-.93-.41-1.85-.62-2.78,3.08-6.62,2.7-14.34,2-21.66-1.18-12.36-2.97-24.86-7.99-36.22-4.84-10.96-12.57-20.51-21.68-28.3C46.38,11.02,35.9,4.94,24.99,0c3.62,1.64,6.42,4.64,9.04,7.62,4.05,4.61,7.92,9.38,11.6,14.28,2.81,3.75,5.54,7.61,7.44,11.9,3.58,8.05,4.06,17.08,5.51,25.77,1.57,9.39,4.34,18.58,8.21,27.28,3.02,6.77,7.27,13.65,13.75,16.93,1.01,2.13,1.93,4.3,2.75,6.5,4.33,16.19,8.34,32.45,10.48,48.98-3.57-5.86-9.42-9.85-13.86-15.02,2.05-3.31,1.71-7.89.89-12.15-2.9-15.05-10.98-28.95-22.1-39.5-11.13-10.55-25.21-17.81-40.08-21.51-6.26-1.56-12.75-2.54-18.54-5.37,10.08,6.67,19.99,13.77,28.38,22.47,16,16.6,26.01,38.53,43.36,53.71,2.04,1.79,4.49,3.55,7.18,3.35,4.73,5.86,11.47,10.06,15.11,16.76.1.88.21,1.76.3,2.65.72,11.64.77,23.34.24,34.97-.01.31-.04.61-.05.92-.65,7.55-1.59,15.08-2.41,22.6-.46,4.05-.96,8.1-1.5,12.14-1.77-2-3.55-3.99-5.54-5.78-1.02-.92-2.1-1.78-3.22-2.57.57-2.36.58-4.84.42-7.28-1.1-17.39-8.61-33.78-17.91-48.51-9.3-14.73-20.46-28.21-29.99-42.79,4,14.07,5.03,28.78,6.92,43.28.95,7.28,2.14,14.56,4.48,21.52,2.34,6.96,5.88,13.61,11.06,18.81,2.65,2.66,5.69,4.91,8.71,7.14,4.18,3.09,8.49,6.21,13.33,8.01.86.49,1.72.99,2.53,1.56,3.19,2.86,6.14,5.97,8.84,9.3-.6,4.33-1.26,8.66-2,12.97-.1.5-.19,1-.3,1.5-3.52,16.92-8.66,33.42-12.97,50.14-3.16,12.25-5.84,24.71-6.96,37.32-1.43-1.83-2.81-3.69-4.14-5.59-.17-.25-.34-.5-.51-.75-.45-.66-.89-1.32-1.32-1.98-.75-1.16-1.48-2.33-2.16-3.53,3.17-20.62-2.66-42.14-10.03-62.31-7.78-21.28-17.59-42.31-33.03-58.9,7.27,9.51,9.69,21.86,10.37,33.81.69,11.95-.13,24,1.63,35.84,3.05,20.48,14.1,39.66,30.28,52.59,1.62,2.69,3.34,5.32,5.16,7.88,1.2,1.72,2.42,3.42,3.61,5.12-.24,3.29-.41,6.58-.41,9.89,0,2.09.06,4.18.16,6.26,0,.18.03,1.02.34,1.01.12,0,.18-.16.22-.34.05.27.09.55.18.82.12.36.33.33.43-.02.04-.12.03-.26.04-.39.04.14.05.28.09.41.15-.09.05-.39.08-.55-.17-1.93-.18-4.19-.1-6.63,1.56-3.21,3.48-6.21,5.67-9.03,1.38-1.77,2.83-3.63,4.49-5.25,2.27.51,4.76-.28,6.88-1.34,10.2-5.11,16.34-15.56,22.97-24.83,15.4-21.54,36.27-39.14,60.09-50.69-14.63,2.37-28.64,7.57-42.35,13.19-2.59,1.06-5.18,2.14-7.7,3.36-22.65,11-38.84,34.3-41.24,59.36.02.03.03.04.05.07-1.3,1.42-2.49,2.95-3.62,4.42-1.92,2.5-3.66,5.14-5.11,7.94.47-7.71,1.75-16.77,2.86-23.89,4-21.78,11.54-42.73,16.1-64.39,3.19-5.56,7.92-9.8,13.14-13.44,8.53,1.87,17.32-1.89,24.7-6.61,23.58-15.08,39.19-39.74,60.13-58.31,3.04-2.7,6.23-5.29,9.87-7.1-14.32,3.49-28.75,7.02-42.13,13.2Zm-71.47,89.79c-1.51,5.91-3.17,11.78-4.84,17.65,1.59-5.89,3.23-11.77,4.84-17.65Z"/></svg>