<?xml version="1.0" encoding="UTF-8"?><svg id="d" xmlns="http://www.w3.org/2000/svg" xmlns:xlink="http://www.w3.org/1999/xlink" viewBox="0 0 251.72 143.15"><defs><clipPath id="e"><path d="m124.95,0C109.24,0,96.5,12.74,96.5,28.45v28.45c0,15.72,12.74,28.45,28.45,28.45s28.45-12.74,28.45-28.45v-28.45C153.41,12.74,140.67,0,124.95,0Z" style="fill:none;"/></clipPath></defs><path d="m14.47,122.57c-.9-.51-1.61-1.5-2.15-2.97l-.72-1.86H3.58l-2.29,5.45H0l8.02-18.92h.86l6.31,15.33c.48,1.11.93,1.87,1.35,2.28.42.41,1.02.66,1.81.73v.57c-.34.09-.73.14-1.15.14-.92,0-1.82-.25-2.72-.76Zm-10.46-5.98h7.02l-3.44-8.31-3.58,8.31Z"/><path d="m38.46,123.85c-.76-.42-1.3-1.08-1.62-1.96-.31-.89-.47-2.08-.47-3.57v-11.03l-7.16,15.91h-.57l-7.45-16.19v16.19h-1.15v-18.92h2.72l6.88,14.9,6.73-14.9h2.58v14.04c0,1.78.22,3.15.67,4.13.45.97,1.13,1.46,2.05,1.46v.57c-1.38,0-2.45-.21-3.21-.63Z"/><path d="m57.18,122.57c-.9-.51-1.61-1.5-2.15-2.97l-.72-1.86h-8.02l-2.29,5.45h-1.29l8.02-18.92h.86l6.31,15.33c.48,1.11.93,1.87,1.35,2.28.42.41,1.02.66,1.81.73v.57c-.34.09-.73.14-1.15.14-.92,0-1.82-.25-2.72-.76Zm-10.46-5.98h7.02l-3.44-8.31-3.58,8.31Z"/><path d="m64.57,108.14v15.05h-1.15v-15.48c0-.92-.2-1.62-.59-2.12-.39-.5-1.06-.74-1.99-.74h-.29v-.57h1.86c.88,0,1.62.14,2.24.43.61.29,1.16.72,1.63,1.29l10.03,12.47v-14.19h1.15v19.2h-.57l-12.32-15.33Z"/><path d="m82.94,107.71c0-.97-.13-1.7-.4-2.16s-.8-.7-1.6-.7h-.57v-.57h7.51c3.71,0,6.51.82,8.41,2.46,1.9,1.64,2.85,3.94,2.85,6.88,0,1.89-.4,3.56-1.2,5-.8,1.44-1.99,2.56-3.57,3.37-1.58.8-3.49,1.2-5.75,1.2h-5.67v-15.48Zm9.41,13.43c1.14-.7,2.03-1.68,2.68-2.95.65-1.27.97-2.76.97-4.46s-.32-3.13-.96-4.41c-.64-1.28-1.53-2.27-2.68-2.98-1.15-.71-2.45-1.06-3.9-1.06-.92,0-1.87.15-2.87.46v16.08c1.07.25,2.04.37,2.92.37,1.41,0,2.69-.35,3.83-1.05Z"/><path d="m114.81,122.57c-.9-.51-1.61-1.5-2.15-2.97l-.72-1.86h-8.02l-2.29,5.45h-1.29l8.02-18.92h.86l6.31,15.33c.48,1.11.93,1.87,1.35,2.28.42.41,1.02.66,1.81.73v.57c-.34.09-.73.14-1.15.14-.92,0-1.82-.25-2.72-.76Zm-10.46-5.98h7.02l-3.44-8.31-3.58,8.31Z"/><path d="m135.27,107.71c0-.97-.13-1.7-.4-2.16s-.8-.7-1.6-.7h-.57v-.57h7.51c3.71,0,6.51.82,8.41,2.46,1.9,1.64,2.85,3.94,2.85,6.88,0,1.89-.4,3.56-1.2,5-.8,1.44-1.99,2.56-3.57,3.37-1.58.8-3.49,1.2-5.75,1.2h-5.67v-15.48Zm9.41,13.43c1.14-.7,2.03-1.68,2.68-2.95.65-1.27.97-2.76.97-4.46s-.32-3.13-.96-4.41c-.64-1.28-1.53-2.27-2.68-2.98-1.15-.71-2.45-1.06-3.9-1.06-.92,0-1.87.15-2.87.46v16.08c1.07.25,2.04.37,2.92.37,1.41,0,2.69-.35,3.83-1.05Z"/><path d="m155.56,107.71c0-.97-.13-1.7-.4-2.16s-.8-.7-1.6-.7h-.57v-.57h12.21c1.62,0,2.44.76,2.44,2.29v2.15h-.57c0-2.2-1.19-3.3-3.58-3.3h-5.33v7.45h7.74v1.15h-7.74v8.02h5.02c1.32,0,2.35-.24,3.09-.72.74-.48,1.34-1.29,1.78-2.44l.57.14-1,2.72c-.34.96-1.06,1.43-2.15,1.43h-9.89v-15.48Z"/><path d="m178.83,107.63c-.38-1.11-.79-1.87-1.22-2.28-.43-.41-1.08-.65-1.94-.73v-.57c.1,0,.23,0,.42-.03.18-.02.37-.03.56-.03,1.05,0,2,.24,2.85.72.85.48,1.53,1.45,2.05,2.92l3.84,11.06,3.07-9.09-.69-1.98c-.38-1.11-.79-1.87-1.22-2.28-.43-.41-1.07-.65-1.93-.73v-.57c.1,0,.23,0,.42-.03.18-.02.37-.03.56-.03,1.05,0,2,.24,2.85.72.85.48,1.53,1.45,2.05,2.92l3.84,11.06,4.9-14.42h1.23l-6.56,19.2h-.57l-4.24-12.07-4.13,12.07h-.57l-5.56-15.85Z"/><path d="m214.63,122.57c-.9-.51-1.61-1.5-2.15-2.97l-.72-1.86h-8.02l-2.29,5.45h-1.29l8.02-18.92h.86l6.31,15.33c.48,1.11.93,1.87,1.35,2.28.42.41,1.02.66,1.81.73v.57c-.34.09-.73.14-1.15.14-.92,0-1.82-.25-2.72-.76Zm-10.46-5.98h7.02l-3.44-8.31-3.58,8.31Z"/><path d="m232.83,122.57c-.9-.51-1.61-1.5-2.15-2.97l-.72-1.86h-8.02l-2.29,5.45h-1.29l8.02-18.92h.86l6.31,15.33c.48,1.11.93,1.87,1.35,2.28.42.41,1.02.66,1.81.73v.57c-.34.09-.73.14-1.15.14-.92,0-1.82-.25-2.72-.76Zm-10.46-5.98h7.02l-3.44-8.31-3.58,8.31Z"/><path d="m238.96,107.71c0-.97-.13-1.7-.4-2.16s-.8-.7-1.6-.7h-.57v-.57h2.58c.71,0,1.24.09,1.59.27.35.18.61.51.76.99s.23,1.2.23,2.18v14.33h10.17v1.15h-12.75v-15.48Z"/><path d="m85.77,135.81h-2.84v-.6h6.37v.6h-2.84v7.33h-.69v-7.33Z"/><path d="m102.47,135.21v7.94h-.69v-3.72h-5.06v3.72h-.69v-7.94h.69v3.6h5.06v-3.6h.69Z"/><path d="m110.1,135.21h4.89v.59h-4.21v3.01h3.99v.61h-3.99v3.13h4.21v.59h-4.89v-7.94Z"/><path d="m128.3,143.15h-.71l-.99-2.64c-.13-.36-.3-.6-.52-.72s-.55-.18-.97-.18h-2.22v3.54h-.69v-7.94h3.06c.82,0,1.46.19,1.92.56s.68.91.68,1.61c0,.51-.14.94-.41,1.29-.27.35-.66.59-1.16.74.23.04.43.13.59.29.16.16.3.39.41.69l1.01,2.75Zm-3.09-4.15c1.3,0,1.95-.54,1.95-1.63s-.65-1.57-1.95-1.57h-2.34v3.2h2.34Z"/><path d="m140.55,141.03h-4.28l-.91,2.12h-.71l3.45-7.94h.62l3.44,7.94h-.71l-.9-2.12Zm-.27-.6l-1.87-4.38-1.88,4.38h3.76Z"/><path d="m149.05,135.21h3.05c.8,0,1.42.19,1.87.58.45.39.68.92.68,1.59s-.23,1.22-.69,1.61-1.08.59-1.87.59h-2.36v3.57h-.69v-7.94Zm3.01,3.77c.62,0,1.1-.14,1.41-.41.32-.27.48-.67.48-1.18s-.16-.9-.48-1.17c-.32-.27-.79-.41-1.41-.41h-2.32v3.18h2.32Z"/><path d="m164.39,139.88v3.27h-.69v-3.29l-3.07-4.65h.8l2.62,4.05,2.62-4.05h.78l-3.06,4.67Z"/><path d="m124.95.8c15.25,0,27.66,12.41,27.66,27.66v28.45c0,15.25-12.41,27.66-27.66,27.66s-27.66-12.41-27.66-27.66v-28.45c0-15.25,12.41-27.66,27.66-27.66m0-.8c-15.72,0-28.45,12.74-28.45,28.45v28.45c0,15.72,12.74,28.45,28.45,28.45s28.46-12.74,28.46-28.45v-28.45c0-15.72-12.74-28.45-28.46-28.45h0Z"/><g style="clip-path:url(#e);"><path id="f" d="m114.08,53.44c2.02-.64,4.1-1.78,6.27-2.72,1.22-.53,2.48-.99,3.64-1.64,1.16-.65,2.24-1.52,2.91-2.67-1.12.85-2.55,1.2-3.94,1.45-1.39.26-2.81.46-4.08,1.09-1.05.52-1.94,1.32-2.81,2.11-.8.72-1.6,1.45-2.22,2.34-.11.11-.22.22-.32.34.35-1.13.84-2.21,1.44-3.23,0-.01.01-.02.02-.04.1-.17.21-.34.31-.51.3-.46.63-.89,1.03-1.27.3.08.64-.05.92-.21.82-.48,1.47-1.22,2.21-1.82.99-.8,2.15-1.36,3.23-2.03,1.07-.67,2.07-1.45,2.98-2.33.26-.25.53-.52.87-.65-1.06.46-2.17.81-3.3,1.02-.57.11-1.15.19-1.71.33-2.16.54-4.05,2.07-5.03,4.07-.23.47-.42,1-.29,1.51,0,0,0,0,0,0-.49.5-.88,1.08-1.23,1.68-.02.04-.05.08-.07.11-.64,1.02-1.12,2.13-1.52,3.26-.19.55-.37,1.1-.53,1.66-.06-.19-.13-.38-.18-.57-.06-.22-.12-.45-.17-.67-.01-.05-.02-.1-.03-.15.35-1.38.34-2.87.68-4.29.14-.58.35-1.15.47-1.73.26-1.23.16-2.51.06-3.77-.05-.57-.09-1.14-.29-1.68-.12-.34-.3-.66-.48-.97-.14-.24-.27-.48-.41-.72-.11-.2-.22-.4-.3-.61.25,1.11.41,2.27.21,3.4-.21,1.15-.77,2.2-1.27,3.25-.5,1.06-.95,2.18-.9,3.35.06,1.55,1,2.94,2.15,3.98.12.57.22,1.15.31,1.73-.17.63-.3,1.28-.4,1.92-.24,1.67-.24,3.37-.1,5.05.09.87.27,1.71.49,2.55-.33-.37-.68-.72-1.05-1.05-.07-.08-.15-.17-.22-.25-.1-2.66-1.16-5.2-2.56-7.47-.24-.39-.49-.77-.78-1.12-1.14-1.41-2.81-2.27-4.46-3.01.76.72,1.53,1.46,1.96,2.41.32.69.43,1.46.57,2.21.31,1.7.81,3.46,2.05,4.66.3.3.65.55.99.8.04.03.08.06.12.09.55.57,1.21,1.03,1.83,1.52.16.13.32.26.47.39.46.53.9,1.07,1.31,1.64.25.85.53,1.68.79,2.52.6,1.88,1.17,3.78,1.65,5.69-.32-.24-.64-.49-.92-.77-.15-.44-.47-.82-.79-1.16-.84-.89-1.76-1.72-2.85-2.28-.99-.51-2.08-.78-3.16-1.05-.64-.16-1.28-.32-1.94-.4-1.02-.13-2.05-.08-3.06.06-1.21.16-2.48.43-3.61,0,1.36.66,2.62,1.54,4.07,1.93,1.04.28,2.13.3,3.17.6,1.17.33,2.21,1,3.27,1.6,1.06.59,2.21,1.13,3.42,1.15.38,0,.76-.04,1.1-.2.57.24,1.03.67,1.45,1.12.02.09.05.18.07.26.45,1.88.72,3.77.32,5.69-.26,1.48-.69,2.91-1.05,4.37-.1.42-.25.82-.26,1.25.02,0,.03-.02.04-.03.04-.04.03-.1.05-.16,0-.04.02-.13.04-.19.25-.83.51-1.68.76-2.53,0,0,0,0,0,0,.16-.34.44-.6.72-.84.31-.26.62-.51.94-.76.11-.09.23-.17.35-.25.77-.02,1.52-.36,2.12-.86.66-.55,1.15-1.28,1.56-2.03.85-1.55,1.41-3.29,1.43-5.06.02-1.93-.59-3.81-1.28-5.61.28,3.16-.47,6.4-2.12,9.1-.41.68-.88,1.32-1.25,2.03-.34.66-.59,1.4-.58,2.14-.54.49-1.1.95-1.68,1.39.36-1.34.65-2.71.69-4.1.02-1.54-.35-3.06-.7-4.55-.04-.16-.09-.32-.13-.48-.12-1.14.04-2.28.44-3.34.03-.06.05-.12.08-.18.48-.09.98-.37,1.42-.69.89-.65,1.62-1.51,2.31-2.37.6-.75,1.19-1.51,1.67-2.34,1.09-1.89,1.58-4.07,1.93-6.22.22-1.35.38-2.74.02-4.06.08.5-.04,1.01-.2,1.5-.56,1.7-1.53,3.23-2.5,4.73-.46.71-.91,1.42-1.41,2.1-.39.54-.81,1.07-1.19,1.63-1.17,1.72-1.96,3.7-2.27,5.76,0,0,0,0,0,0-.34.79-.53,1.65-.58,2.51-.39-1.4-.8-2.8-1.25-4.18-.27-.87-.57-1.75-.83-2.65,0-.03,0-.05-.02-.07,0,0,0,0,0,0-.17-.57-.32-1.15-.44-1.72.15-.86.52-1.67,1.05-2.36.4.08.84-.15,1.21-.38,1.93-1.19,3.66-2.78,4.76-4.76.79-1.41,1.23-2.99,1.68-4.54.09-.32.18-.64.24-.96-1.49,1.45-3.11,2.76-4.55,4.25-1.44,1.49-2.72,3.21-3.36,5.18-.12.37-.21.76-.15,1.14-.41.54-.75,1.13-1.01,1.76-.04-.26-.08-.52-.11-.78-.3-2.87-.02-5.78.9-8.52.19-.3.43-.54.7-.76Zm1.53,29.73s0,0,0,.01c0,0,0-.01,0-.02,0,0,0,0,0,.01Z"/><path id="g" d="m126.89,13.95c.31,1.88,1.27,3.6,2.34,5.18-.55-1.59-.62-3.32-.31-4.97.17-.92.46-1.81.65-2.72.35-1.6.41-3.26.21-4.88.02-.03.03-.06.05-.09.46-.69.93-1.37,1.43-2.03-.02.09-.03.18-.05.28,0,.01,0,.02,0,.04-.69,3.24-.37,6.7.8,9.79.98,2.63,2.5,4.99,3.96,7.39.07,1.12-.28,2.2-.7,3.24-.01.03-.03.05-.05.08-2.22,1.18-4.14,3.57-4.9,6.29-.18.64-.29,1.3-.44,1.95-.11.51-.24,1.01-.35,1.53-.19.94-.29,1.91-.29,2.87.79-2.38,2.43-4.35,3.91-6.37.68-.93,1.35-1.9,1.79-2.97.44-1.04.66-2.19.47-3.3.16-.34.31-.69.42-1.05.13-.4.23-.81.32-1.23.04-.2.08-.41.08-.61.83,1.38,1.64,2.77,2.3,4.23.64,1.41,1.25,2.83,1.57,4.32.09.39.16.78.21,1.18-.02.25-.06.5-.12.75-.12.35-.25.7-.43,1.01-.22.41-.53.91-.81,1.33-2.55,1.43-4.45,3.71-5.97,6.12-.26.42-.52.84-.72,1.29-.23.51-.4,1.06-.56,1.6,1.21-.87,2.43-1.74,3.6-2.67.44-.34.87-.69,1.26-1.08,1.37-1.35,2.27-3.18,2.5-5.09.59-.77,1.13-1.6,1.33-2.54.11,1.06.14,2.13.14,3.19,0,2.02-.22,4.02-.58,6.01-.1.48-.17.98-.26,1.46-.88.76-1.56,1.74-2.1,2.78-.54,1.06-.93,2.18-1.31,3.3-.19.54-.38,1.09-.51,1.65-.17.7-.27,1.41-.35,2.13-.13,1.16-.23,2.32-.3,3.48,1.31-2.58,3.41-4.75,4.43-7.46.48-1.29.71-2.67.66-4.04-.02-.57-.1-1.17-.38-1.66.02-.1.05-.2.07-.31.08-.4.16-.79.24-1.19.09-.48.17-.96.23-1.44.26-1.54.39-3.1.41-4.66.07-2.12-.11-4.26-.68-6.29.31.16.6.35.85.59.08.08.16.16.23.25-.02.42.03.79.1,1.14.46,2.51,1.18,4.98,2.29,7.28.79,1.64,1.79,3.2,2.34,4.94.24-2.33.16-4.69-.26-7-.25-1.38-.62-2.75-1.33-3.95-.66-1.13-1.66-2.09-2.88-2.56-.46-.44-.96-.84-1.49-1.18-.22-.7-.48-1.38-.79-2.05-1-2.32-2.31-4.5-3.62-6.66-.48-.76-.95-1.52-1.39-2.29.56.57,1.21,1.05,1.87,1.5,1.1,1.44,2.54,2.61,4.16,3.42,1.07.53,2.21.91,3.28,1.42,2.06.97,3.87,2.4,5.66,3.81.51.4,1.03.82,1.38,1.36-1.1-2.94-3.11-5.52-5.69-7.31-2.48-1.72-5.48-2.69-8.5-2.77-.91-.61-1.82-1.26-2.54-2.1-.71-1.29-1.34-2.61-1.79-4.01-1.04-3.07-1.2-6.55-.41-9.75.09-.49.32-1.05.57-1.58.05.3.11.6.2.89,0,0,0,.02.02.04.04.15.08.3.13.44-.03,2.78.97,5.48,2.79,7.45.49.53,1.04,1.01,1.58,1.49,2.13,1.9,4.25,3.98,5.26,6.65.07-1.04,0-2.09-.23-3.1-.18-.83-.45-1.63-.74-2.43-.44-1.21-.94-2.4-1.58-3.53-1.61-2.86-4.09-5.22-7.03-6.68-.11-.42-.22-.84-.29-1.27,0,0,0-.02,0-.03,0-.01,0-.02,0-.04,0,0,0,0,0-.01,0-.03,0-.06,0-.08.1-.21.19-.4.28-.59.11-.18.23-.37.36-.54.05-.06-.04-.29-.06-.27-.7.98-1.2,2.1-1.48,3.27-.52.69-1.06,1.36-1.49,2.12-.04.06-.07.13-.11.19-.08.12-.16.25-.24.38-2.02,1.78-3.08,4.68-2.64,7.38Zm9.17,8.12s0-.01,0-.02h0s0,.01,0,.02Z"/></g></svg>