<?xml version="1.0" encoding="UTF-8"?><svg id="logo" xmlns="http://www.w3.org/2000/svg" viewBox="0 0 343.21 54.15"><path d="m19.73,25.34c-1.22-.69-2.2-2.04-2.93-4.04l-.98-2.54H4.88l-3.13,7.42H0L10.94.39h1.17l8.6,20.91c.65,1.51,1.26,2.55,1.84,3.11.57.56,1.39.89,2.46,1v.78c-.47.13-.99.2-1.56.2-1.25,0-2.49-.35-3.71-1.04Zm-14.26-8.15h9.57l-4.69-11.33-4.88,11.33Z"/><path d="m52.44,27.08c-1.04-.57-1.78-1.47-2.21-2.68-.43-1.21-.64-2.83-.64-4.87V4.49l-9.77,21.69h-.78L28.88,4.1v22.08h-1.56V.39h3.71l9.38,20.32L49.59.39h3.52v19.15c0,2.42.31,4.3.92,5.63.61,1.33,1.54,1.99,2.79,1.99v.78c-1.88,0-3.33-.29-4.38-.86Z"/><path d="m77.96,25.34c-1.22-.69-2.2-2.04-2.93-4.04l-.98-2.54h-10.94l-3.13,7.42h-1.76L69.17.39h1.17l8.6,20.91c.65,1.51,1.26,2.55,1.84,3.11.57.56,1.39.89,2.46,1v.78c-.47.13-.99.2-1.56.2-1.25,0-2.49-.35-3.71-1.04Zm-14.26-8.15h9.57l-4.69-11.33-4.88,11.33Z"/><path d="m88.04,5.67v20.52h-1.56V5.08c0-1.25-.27-2.21-.8-2.89-.53-.68-1.44-1.02-2.72-1.02h-.39V.39h2.54c1.2,0,2.21.2,3.05.59.83.39,1.58.98,2.23,1.76l13.68,17V.39h1.56v26.18h-.78l-16.8-20.91Z"/><path d="m113.09,5.08c0-1.33-.18-2.31-.55-2.95-.36-.64-1.09-.96-2.19-.96h-.78V.39h10.24c5.05,0,8.88,1.12,11.47,3.36,2.59,2.24,3.89,5.37,3.89,9.38,0,2.58-.55,4.85-1.64,6.82-1.09,1.97-2.72,3.5-4.86,4.59-2.15,1.09-4.76,1.64-7.83,1.64h-7.74V5.08Zm12.84,18.31c1.55-.95,2.77-2.29,3.65-4.02.89-1.73,1.33-3.76,1.33-6.08s-.44-4.27-1.31-6.02c-.87-1.75-2.09-3.1-3.65-4.06-1.56-.96-3.33-1.45-5.32-1.45-1.25,0-2.55.21-3.91.63v21.92c1.46.34,2.79.51,3.99.51,1.93,0,3.67-.48,5.22-1.43Z"/><path d="m156.54,25.34c-1.22-.69-2.2-2.04-2.93-4.04l-.98-2.54h-10.94l-3.13,7.42h-1.76L147.75.39h1.17l8.6,20.91c.65,1.51,1.26,2.55,1.84,3.11.57.56,1.39.89,2.46,1v.78c-.47.13-.99.2-1.56.2-1.25,0-2.49-.35-3.71-1.04Zm-14.26-8.15h9.57l-4.69-11.33-4.88,11.33Z"/><path d="m184.44,5.08c0-1.33-.18-2.31-.55-2.95-.36-.64-1.09-.96-2.19-.96h-.78V.39h10.24c5.05,0,8.88,1.12,11.47,3.36,2.59,2.24,3.89,5.37,3.89,9.38,0,2.58-.55,4.85-1.64,6.82-1.09,1.97-2.72,3.5-4.86,4.59-2.15,1.09-4.76,1.64-7.83,1.64h-7.74V5.08Zm12.84,18.31c1.55-.95,2.77-2.29,3.65-4.02.89-1.73,1.33-3.76,1.33-6.08s-.44-4.27-1.31-6.02c-.87-1.75-2.09-3.1-3.65-4.06-1.56-.96-3.33-1.45-5.32-1.45-1.25,0-2.55.21-3.91.63v21.92c1.46.34,2.79.51,3.99.51,1.93,0,3.67-.48,5.22-1.43Z"/><path d="m212.11,5.08c0-1.33-.18-2.31-.55-2.95-.36-.64-1.09-.96-2.19-.96h-.78V.39h16.65c2.21,0,3.32,1.04,3.32,3.13v2.93h-.78c0-3-1.63-4.49-4.88-4.49h-7.27v10.16h10.55v1.56h-10.55v10.94h6.84c1.8,0,3.2-.33,4.22-.98,1.02-.65,1.82-1.76,2.42-3.32l.78.2-1.37,3.71c-.47,1.3-1.45,1.95-2.93,1.95h-13.48V5.08Z"/><path d="m243.84,4.96c-.52-1.51-1.07-2.55-1.66-3.11-.59-.56-1.47-.89-2.64-1V.08c.13,0,.32-.01.57-.04.25-.03.5-.04.76-.04,1.43,0,2.73.33,3.89.98,1.16.65,2.09,1.98,2.79,3.99l5.24,15.08,4.18-12.39-.94-2.7c-.52-1.51-1.07-2.55-1.66-3.11-.59-.56-1.46-.89-2.64-1V.08c.13,0,.32-.01.57-.04.25-.03.5-.04.76-.04,1.43,0,2.73.33,3.89.98,1.16.65,2.09,1.98,2.79,3.99l5.24,15.08,6.68-19.66h1.68l-8.95,26.18h-.78l-5.78-16.45-5.63,16.45h-.78l-7.58-21.61Z"/><path d="m292.65,25.34c-1.22-.69-2.2-2.04-2.93-4.04l-.98-2.54h-10.94l-3.13,7.42h-1.76L283.86.39h1.17l8.6,20.91c.65,1.51,1.26,2.55,1.84,3.11.57.56,1.39.89,2.46,1v.78c-.47.13-.99.2-1.56.2-1.25,0-2.49-.35-3.71-1.04Zm-14.26-8.15h9.57l-4.69-11.33-4.88,11.33Z"/><path d="m317.46,25.34c-1.22-.69-2.2-2.04-2.93-4.04l-.98-2.54h-10.94l-3.13,7.42h-1.76L308.67.39h1.17l8.6,20.91c.65,1.51,1.26,2.55,1.84,3.11.57.56,1.39.89,2.46,1v.78c-.47.13-.99.2-1.56.2-1.25,0-2.49-.35-3.71-1.04Zm-14.26-8.15h9.57l-4.69-11.33-4.88,11.33Z"/><path d="m325.83,5.08c0-1.33-.18-2.31-.55-2.95-.36-.64-1.09-.96-2.19-.96h-.78V.39h3.52c.96,0,1.69.12,2.17.37.48.25.83.7,1.03,1.35.21.65.31,1.64.31,2.97v19.54h13.87v1.56h-17.39V5.08Z"/><path d="m118.79,44.15h-3.88v-.82h8.69v.82h-3.87v10h-.94v-10Z"/><path d="m141.57,43.33v10.82h-.94v-5.08h-6.9v5.08h-.94v-10.82h.94v4.91h6.9v-4.91h.94Z"/><path d="m151.97,43.33h6.67v.81h-5.74v4.1h5.44v.84h-5.44v4.27h5.74v.81h-6.67v-10.82Z"/><path d="m176.78,54.15h-.97l-1.35-3.6c-.17-.49-.41-.81-.71-.98-.3-.17-.75-.25-1.32-.25h-3.02v4.83h-.94v-10.82h4.18c1.12,0,2,.26,2.61.77.62.51.93,1.24.93,2.2,0,.7-.19,1.29-.56,1.76-.37.48-.9.81-1.59,1,.31.05.58.18.81.39.22.21.41.53.56.94l1.38,3.75Zm-4.21-5.65c1.77,0,2.66-.74,2.66-2.22s-.89-2.14-2.66-2.14h-3.19v4.36h3.19Z"/><path d="m193.49,51.26h-5.84l-1.25,2.89h-.97l4.71-10.82h.85l4.7,10.82h-.97l-1.23-2.89Zm-.36-.82l-2.55-5.97-2.57,5.97h5.12Z"/><path d="m205.08,43.33h4.16c1.08,0,1.93.26,2.55.79.62.53.93,1.25.93,2.17s-.31,1.66-.93,2.2c-.62.53-1.47.8-2.55.8h-3.22v4.86h-.94v-10.82Zm4.1,5.14c.85,0,1.49-.19,1.93-.56s.65-.91.65-1.61-.22-1.22-.65-1.6-1.08-.56-1.93-.56h-3.16v4.33h3.16Z"/><path d="m225.99,49.69v4.45h-.94v-4.48l-4.18-6.34h1.1l3.57,5.52,3.57-5.52h1.06l-4.18,6.37Z"/></svg>